<?xml version="1.0" encoding="utf-8"?>
<!-- Generator: Adobe Illustrator 20.1.0, SVG Export Plug-In . SVG Version: 6.00 Build 0)  -->
<svg version="1.1" id="Layer_1" xmlns="http://www.w3.org/2000/svg" xmlns:xlink="http://www.w3.org/1999/xlink" x="0px" y="0px"
	 viewBox="0 0 48 48" style="enable-background:new 0 0 48 48;" xml:space="preserve">
<style type="text/css">
	.st0{fill:#FFFFFF;}
</style>
<path class="st0" d="M43.2,36.4c-4.6-4.8-6.6-9-6-12.6c0.7-2.9,2.7-5.3,5.3-6.6c1-0.5,1.5-1.6,1.2-2.7l-1.6-5.6
	c-0.3-0.9-1.1-1.6-2-1.7c-6.8-0.6-9-4.2-9.3-4.8l-0.1-0.2c-0.3-0.9-1.2-1.5-2.1-1.5h-9.9c-0.9,0-1.8,0.6-2.1,1.5c0,0-1.9,4.4-9.4,5
	c-1,0.1-1.8,0.8-2,1.7l-1.5,5.5c-0.3,1.1,0.2,2.2,1.2,2.7c2.6,1.3,4.6,3.7,5.3,6.5c0.6,3.7-1.4,7.9-6,12.7c-0.8,0.8-0.9,2.1-0.2,3
	l4,5.2l0,0c0.4,0.5,0.9,0.7,1.5,0.8s1.2-0.1,1.7-0.5c1.6-1.2,3.5-1.7,5.5-1.5c2.1,0.5,3.9,1.8,5,3.7c0.4,0.6,1.1,1,1.9,1
	c0.1,0,0.2,0,0.2,0c0.6,0,1.3-0.3,1.7-0.8l0.1-0.2c1.1-1.9,2.9-3.2,5-3.6c2-0.2,3.9,0.4,5.5,1.5c0.5,0.4,1.1,0.6,1.7,0.5
	c0.6-0.1,1.2-0.4,1.6-0.9l4-5.2C44.1,38.5,44,37.2,43.2,36.4z M14.7,22.7c-0.8-3.6-3-6.8-6.1-8.9l0.6-2.3c6.5-1,9.6-4.4,10.9-6.2
	h7.2c1.3,1.9,4.4,5.3,10.9,6.2l0.6,2.3c-3.1,2-5.3,5.2-6.2,8.9c-0.8,4.8,1.2,9.9,5.8,15.2l-1.5,1.9c-2.1-1.1-4.6-1.6-7-1.3
	c-2.4,0.4-4.6,1.6-6.2,3.3c-1.7-1.7-3.8-2.8-6.2-3.2c-0.5-0.1-1-0.1-1.5-0.1l0,0l0,0c-1.9,0-3.8,0.5-5.5,1.3L8.9,38
	C13.6,32.6,15.6,27.5,14.7,22.7z"/>
</svg>
